<svg width="151" height="144" viewBox="0 0 151 144" fill="none" xmlns="http://www.w3.org/2000/svg">
<path d="M75.25 137.25V124.75H119V118.5H94V68.5H119V62.25C119 50.1667 114.729 39.8542 106.188 31.3125C97.6458 22.7708 87.3333 18.5 75.25 18.5C63.1667 18.5 52.8542 22.7708 44.3125 31.3125C35.7708 39.8542 31.5 50.1667 31.5 62.25V68.5H56.5V118.5H31.5C28.0625 118.5 25.1198 117.276 22.6719 114.828C20.224 112.38 19 109.438 19 106V62.25C19 54.5417 20.4844 47.276 23.4531 40.4531C26.4219 33.6302 30.4583 27.6667 35.5625 22.5625C40.6667 17.4583 46.6302 13.4219 53.4531 10.4531C60.276 7.48438 67.5417 6 75.25 6C82.9583 6 90.224 7.48438 97.0469 10.4531C103.87 13.4219 109.833 17.4583 114.938 22.5625C120.042 27.6667 124.078 33.6302 127.047 40.4531C130.016 47.276 131.5 54.5417 131.5 62.25V124.75C131.5 128.188 130.276 131.13 127.828 133.578C125.38 136.026 122.438 137.25 119 137.25H75.25ZM31.5 106H44V81H31.5V106ZM106.5 106H119V81H106.5V106Z" fill="white"/>
</svg>
