<svg width="122" height="115" viewBox="0 0 122 115" fill="none" xmlns="http://www.w3.org/2000/svg">
<g clip-path="url(#clip0_49_134)">
<path d="M119.915 70.5099C116.141 74.004 112.358 75.6614 107.165 74.6128C101.752 73.5235 97.4738 70.17 94.502 65.6131C91.1285 60.4291 89.3033 54.4292 86.8898 48.7692C85.2856 45.0047 83.284 39.5413 78.9512 38.1838C74.1925 36.6915 71.1872 42.1938 68.352 44.9895C63.9407 49.3464 58.0082 52.9394 51.6314 51.7087C45.8059 50.5834 42.7832 46.3289 42.5116 40.5999C42.3257 36.7035 43.0652 32.4711 41.6727 28.7401C40.3397 25.1673 36.7384 23.0453 32.9571 23.7755C28.377 24.6595 24.6886 28.618 21.9533 32.1533C21.127 33.2209 22.734 34.5374 23.5639 33.4654C26.1782 30.0875 30.5239 25.0554 35.3182 25.7575C40.5437 26.5258 40.4557 32.6785 40.4239 36.7267C40.3945 40.7184 40.2548 45.059 42.6305 48.4719C45.1651 52.1167 49.7008 53.954 54.055 54.005C58.8344 54.0586 63.3377 51.8467 67.0098 48.8771C69.0911 47.1934 70.9153 45.2565 72.672 43.2425C73.6639 42.105 74.6892 40.6509 76.1664 40.1355C78.5547 39.3017 80.477 41.1823 81.7171 42.9313C88.0734 51.8765 88.5926 64.4486 97.4292 71.8159C100.858 74.6747 105.412 76.4177 109.898 76.4666C113.919 76.5093 118.814 74.9455 120.314 70.8283C120.393 70.6071 120.132 70.3141 119.923 70.5091L119.915 70.5099Z" fill="#26264F"/>
<path d="M119.862 70.7082C110.824 73.9076 100.491 70.565 94.7622 63.0091C91.5346 58.7484 91.2001 54.0654 90.36 48.9631C89.6917 44.9298 88.1625 40.9045 84.1881 39.1515C73.8647 34.5959 65.7528 45.7976 57.8315 50.1695C52.7868 52.9572 44.0662 53.3499 42.6939 46.2341C41.7883 41.532 44.3102 36.872 43.5713 32.1521C43.0254 28.6353 40.7896 24.2684 36.7736 24.0687C34.6227 23.9622 32.8901 25.1911 31.3759 26.6053C28.9288 28.8979 26.1329 31.3964 24.2322 34.1561C23.6628 34.9795 24.5794 36.1212 25.4711 35.48C28.8888 33.0272 34.8913 22.8058 39.3671 27.7834C42.9394 31.7543 40.9833 37.2044 40.4861 41.8682C40.0711 45.8089 40.6935 49.9073 44.1055 52.3506C47.5559 54.8178 52.4291 54.6407 56.2841 53.2244C61.5247 51.2986 65.4002 46.9148 69.8942 43.7809C74.2077 40.7707 81.2014 38.2397 85.5277 42.5029C89.2556 46.1763 88.3841 52.393 89.7104 57.0941C90.7665 60.829 92.96 64.1813 95.7913 66.7951C102.185 72.6987 111.97 75.1332 120.128 71.4662C120.6 71.2511 120.342 70.5364 119.85 70.7135L119.862 70.7082Z" fill="#26264F"/>
<path d="M31.0272 27.1844C27.7318 29.9049 23.7888 33.3048 21.7263 37.081C21.4201 37.6435 22.2218 38.3039 22.71 37.8825C24.2931 36.5171 25.5208 34.7524 26.9164 33.1904C28.5006 31.4236 30.1465 29.7144 31.7707 27.9875C32.1995 27.5323 31.5098 26.7876 31.0237 27.1888L31.0272 27.1844Z" fill="#26264F"/>
<path d="M28.8954 25.6232C24.5497 30.6552 19.9733 35.6237 16.0237 40.9784C15.4425 41.763 16.5351 42.6531 17.186 41.9253C21.6318 36.9748 25.5726 31.4886 29.6224 26.2154C29.9925 25.7343 29.2961 25.1669 28.8998 25.6267L28.8954 25.6232Z" fill="#26264F"/>
<path d="M27.2215 28.158C23.2893 33.0735 19.2594 37.9312 15.4404 42.9389C14.8641 43.6908 15.9835 44.6102 16.5722 43.8609C20.4687 38.9091 24.1817 33.8004 27.9658 28.7644C28.3424 28.2666 27.6147 27.6664 27.2215 28.158Z" fill="#26264F"/>
<path d="M34.4484 25.0562C27.1319 31.4057 20.3838 38.3645 14.5282 46.0943C13.7679 47.0987 15.2538 48.3238 16.0387 47.3248C21.9616 39.7523 28.262 32.5165 35.191 25.8514C35.6344 25.4227 34.9222 24.6524 34.4527 25.0598L34.4484 25.0562Z" fill="#26264F"/>
<path d="M24.9709 40.6898C20.8944 43.169 16.7369 45.3921 12.2846 47.0971L13.7123 48.2602C15.3199 41.7801 16.3327 34.9545 16.1462 28.2854C16.1039 26.8173 14.0941 27.0086 13.7639 28.2317C12.5573 32.6906 11.4939 37.1783 10.6068 41.7073C10.2165 43.7153 9.49565 45.9514 9.48165 47.9953C9.47353 48.7787 9.44822 49.4675 10.1631 49.9768C12.0358 51.3049 16.578 48.6273 18.2908 47.8138C21.8575 46.1114 25.1071 43.9094 28.0537 41.2703C29.1892 40.2498 28.0126 38.494 26.6781 39.3231C20.8045 42.9861 14.9178 46.6384 8.77774 49.8283C9.26967 50.3534 9.76083 50.8705 10.2528 51.3957C11.9246 46.1967 13.9564 41.0716 15.4178 35.8109C15.7178 34.7314 14.0342 34.318 13.5825 35.2813C11.3239 40.1338 9.76929 45.3844 8.10969 50.4616C7.83411 51.2977 8.58818 52.5411 9.58469 52.029C15.9307 48.7729 21.9989 45.049 28.0501 41.2747C27.5942 40.6254 27.1304 39.9769 26.6745 39.3275C24.5283 41.2508 22.2299 42.9698 19.7305 44.3932C18.1618 45.2876 16.513 46.0581 14.828 46.7042C14.2562 46.9259 13.5721 47.0635 13.0303 47.3462C12.7271 47.4429 12.4238 47.5396 12.1205 47.6363C11.8309 48.5341 11.7692 48.6009 11.9312 47.8332C11.8887 44.8363 13.0898 41.353 13.7269 38.4197C14.4412 35.125 15.2538 31.8519 16.1358 28.5915C15.3403 28.5724 14.5491 28.5568 13.7535 28.5378C13.9347 35.1512 12.5323 41.4328 11.6005 47.9368C11.4941 48.6986 12.271 49.4339 13.0282 49.1C17.5214 47.1138 21.8035 44.7288 25.6575 41.6515C26.2637 41.1652 25.6252 40.2866 24.9744 40.6854L24.9709 40.6898Z" fill="#26264F"/>
</g>
<defs>
<clipPath id="clip0_49_134">
<rect width="110" height="58" fill="white" transform="translate(85.2815 114.444) rotate(-140.831)"/>
</clipPath>
</defs>
</svg>
