<svg width="34" height="24" viewBox="0 0 34 24" fill="none" xmlns="http://www.w3.org/2000/svg">
<path d="M0.5 24V18C0.5 17.15 0.79375 16.4375 1.38125 15.8625C1.96875 15.2875 2.675 15 3.5 15H8.4125C8.9125 15 9.3875 15.125 9.8375 15.375C10.2875 15.625 10.65 15.9625 10.925 16.3875C11.65 17.3625 12.5437 18.125 13.6063 18.675C14.6688 19.225 15.8 19.5 17 19.5C18.225 19.5 19.3687 19.225 20.4313 18.675C21.4938 18.125 22.375 17.3625 23.075 16.3875C23.4 15.9625 23.7812 15.625 24.2188 15.375C24.6562 15.125 25.1125 15 25.5875 15H30.5C31.35 15 32.0625 15.2875 32.6375 15.8625C33.2125 16.4375 33.5 17.15 33.5 18V24H23V20.5875C22.125 21.2125 21.1812 21.6875 20.1688 22.0125C19.1562 22.3375 18.1 22.5 17 22.5C15.925 22.5 14.875 22.3313 13.85 21.9938C12.825 21.6562 11.875 21.175 11 20.55V24H0.5ZM17 18C16.05 18 15.15 17.7812 14.3 17.3438C13.45 16.9062 12.7375 16.3 12.1625 15.525C11.7375 14.9 11.2063 14.4062 10.5688 14.0438C9.93125 13.6813 9.2375 13.5 8.4875 13.5C9.0375 12.575 10.2 11.8438 11.975 11.3062C13.75 10.7688 15.425 10.5 17 10.5C18.575 10.5 20.25 10.7688 22.025 11.3062C23.8 11.8438 24.9625 12.575 25.5125 13.5C24.7875 13.5 24.1 13.6813 23.45 14.0438C22.8 14.4062 22.2625 14.9 21.8375 15.525C21.2875 16.325 20.5875 16.9375 19.7375 17.3625C18.8875 17.7875 17.975 18 17 18ZM5 13.5C3.75 13.5 2.6875 13.0625 1.8125 12.1875C0.9375 11.3125 0.5 10.25 0.5 9C0.5 7.725 0.9375 6.65625 1.8125 5.79375C2.6875 4.93125 3.75 4.5 5 4.5C6.275 4.5 7.34375 4.93125 8.20625 5.79375C9.06875 6.65625 9.5 7.725 9.5 9C9.5 10.25 9.06875 11.3125 8.20625 12.1875C7.34375 13.0625 6.275 13.5 5 13.5ZM29 13.5C27.75 13.5 26.6875 13.0625 25.8125 12.1875C24.9375 11.3125 24.5 10.25 24.5 9C24.5 7.725 24.9375 6.65625 25.8125 5.79375C26.6875 4.93125 27.75 4.5 29 4.5C30.275 4.5 31.3438 4.93125 32.2063 5.79375C33.0688 6.65625 33.5 7.725 33.5 9C33.5 10.25 33.0688 11.3125 32.2063 12.1875C31.3438 13.0625 30.275 13.5 29 13.5ZM17 9C15.75 9 14.6875 8.5625 13.8125 7.6875C12.9375 6.8125 12.5 5.75 12.5 4.5C12.5 3.225 12.9375 2.15625 13.8125 1.29375C14.6875 0.43125 15.75 0 17 0C18.275 0 19.3438 0.43125 20.2062 1.29375C21.0688 2.15625 21.5 3.225 21.5 4.5C21.5 5.75 21.0688 6.8125 20.2062 7.6875C19.3438 8.5625 18.275 9 17 9Z" fill="white"/>
</svg>
