<svg width="30" height="25" viewBox="0 0 30 25" fill="none" xmlns="http://www.w3.org/2000/svg">
<path d="M0 24V19.8C0 18.975 0.2125 18.2 0.6375 17.475C1.0625 16.75 1.65 16.2 2.4 15.825C3.675 15.175 5.1125 14.625 6.7125 14.175C8.3125 13.725 10.075 13.5 12 13.5C12.75 13.5 13.4813 13.5375 14.1938 13.6125C14.9063 13.6875 15.6 13.8 16.275 13.95L13.65 16.575C13.375 16.525 13.1062 16.5 12.8438 16.5H12C10.225 16.5 8.63125 16.7125 7.21875 17.1375C5.80625 17.5625 4.65 18.025 3.75 18.525C3.525 18.65 3.34375 18.825 3.20625 19.05C3.06875 19.275 3 19.525 3 19.8V21H12.375L15.375 24H0ZM20.325 24.6L15.15 19.425L17.25 17.325L20.325 20.4L27.9 12.825L30 14.925L20.325 24.6ZM12 12C10.35 12 8.9375 11.4125 7.7625 10.2375C6.5875 9.0625 6 7.65 6 6C6 4.35 6.5875 2.9375 7.7625 1.7625C8.9375 0.5875 10.35 0 12 0C13.65 0 15.0625 0.5875 16.2375 1.7625C17.4125 2.9375 18 4.35 18 6C18 7.65 17.4125 9.0625 16.2375 10.2375C15.0625 11.4125 13.65 12 12 12ZM12 9C12.825 9 13.5313 8.70625 14.1188 8.11875C14.7063 7.53125 15 6.825 15 6C15 5.175 14.7063 4.46875 14.1188 3.88125C13.5313 3.29375 12.825 3 12 3C11.175 3 10.4688 3.29375 9.88125 3.88125C9.29375 4.46875 9 5.175 9 6C9 6.825 9.29375 7.53125 9.88125 8.11875C10.4688 8.70625 11.175 9 12 9Z" fill="white"/>
</svg>
