<svg width="30" height="26" viewBox="0 0 30 26" fill="none" xmlns="http://www.w3.org/2000/svg">
<path d="M12 12C10.35 12 8.9375 11.4125 7.7625 10.2375C6.5875 9.0625 6 7.65 6 6C6 4.35 6.5875 2.9375 7.7625 1.7625C8.9375 0.5875 10.35 0 12 0C13.65 0 15.0625 0.5875 16.2375 1.7625C17.4125 2.9375 18 4.35 18 6C18 7.65 17.4125 9.0625 16.2375 10.2375C15.0625 11.4125 13.65 12 12 12ZM0 24V19.8C0 18.975 0.2125 18.2 0.6375 17.475C1.0625 16.75 1.65 16.2 2.4 15.825C3.675 15.175 5.1125 14.625 6.7125 14.175C8.3125 13.725 10.075 13.5 12 13.5H12.525C12.675 13.5 12.825 13.525 12.975 13.575C12.775 14.025 12.6062 14.4938 12.4688 14.9813C12.3313 15.4688 12.225 15.975 12.15 16.5H12C10.225 16.5 8.63125 16.725 7.21875 17.175C5.80625 17.625 4.65 18.075 3.75 18.525C3.525 18.65 3.34375 18.825 3.20625 19.05C3.06875 19.275 3 19.525 3 19.8V21H12.45C12.6 21.525 12.8 22.0438 13.05 22.5563C13.3 23.0688 13.575 23.55 13.875 24H0ZM21 25.5L20.55 23.25C20.25 23.125 19.9688 22.9937 19.7062 22.8563C19.4438 22.7188 19.175 22.55 18.9 22.35L16.725 23.025L15.225 20.475L16.95 18.975C16.9 18.625 16.875 18.3 16.875 18C16.875 17.7 16.9 17.375 16.95 17.025L15.225 15.525L16.725 12.975L18.9 13.65C19.175 13.45 19.4438 13.2812 19.7062 13.1437C19.9688 13.0062 20.25 12.875 20.55 12.75L21 10.5H24L24.45 12.75C24.75 12.875 25.0313 13.0125 25.2938 13.1625C25.5563 13.3125 25.825 13.5 26.1 13.725L28.275 12.975L29.775 15.6L28.05 17.1C28.1 17.4 28.125 17.7125 28.125 18.0375C28.125 18.3625 28.1 18.675 28.05 18.975L29.775 20.475L28.275 23.025L26.1 22.35C25.825 22.55 25.5563 22.7188 25.2938 22.8563C25.0313 22.9937 24.75 23.125 24.45 23.25L24 25.5H21ZM22.5 21C23.325 21 24.0312 20.7063 24.6188 20.1188C25.2063 19.5312 25.5 18.825 25.5 18C25.5 17.175 25.2063 16.4688 24.6188 15.8813C24.0312 15.2938 23.325 15 22.5 15C21.675 15 20.9688 15.2938 20.3813 15.8813C19.7938 16.4688 19.5 17.175 19.5 18C19.5 18.825 19.7938 19.5312 20.3813 20.1188C20.9688 20.7063 21.675 21 22.5 21ZM12 9C12.825 9 13.5313 8.70625 14.1188 8.11875C14.7063 7.53125 15 6.825 15 6C15 5.175 14.7063 4.46875 14.1188 3.88125C13.5313 3.29375 12.825 3 12 3C11.175 3 10.4688 3.29375 9.88125 3.88125C9.29375 4.46875 9 5.175 9 6C9 6.825 9.29375 7.53125 9.88125 8.11875C10.4688 8.70625 11.175 9 12 9Z" fill="white"/>
</svg>
